<?xml version="1.0" standalone="no"?>
<!DOCTYPE svg PUBLIC "-//W3C//DTD SVG 1.1//EN" "http://www.w3.org/Graphics/SVG/1.1/DTD/svg11.dtd" >
<!--
2013-9-30: Created.
-->
<svg>
<metadata>
Created by iconfont
</metadata>
<defs>

<font id="iconfont" horiz-adv-x="1024" >
  <font-face
    font-family="iconfont"
    font-weight="500"
    font-stretch="normal"
    units-per-em="1024"
    ascent="896"
    descent="-128"
  />
    <missing-glyph />
    
    <glyph glyph-name="eraser" unicode="&#60059;" d="M512 91.428571l192 219.428571-438.857143 0-192-219.428571 438.857143 0zM1090.852571 706.852571q8.557714-19.456 5.412571-40.886857t-17.408-37.449143l-512-585.142857q-21.723429-25.161143-54.857143-25.161143l-438.857143 0q-21.723429 0-39.716571 11.702857t-27.136 31.158857q-8.557714 19.456-5.412571 40.886857t17.408 37.449143l512 585.142857q21.723429 25.161143 54.857143 25.161143l438.857143 0q21.723429 0 39.716571-11.702857t27.136-31.158857z"  horiz-adv-x="1098" />

    
    <glyph glyph-name="preview" unicode="&#58932;" d="M510.60661969 146.25529673999995c-254.55774439 0-461.2061448 267.32586962-461.2061448 276.39308955 0 10.05330007 206.64840041 277.3791697 461.2061448 277.3791697 255.68416139 0 465.80122934-278.89927358 462.33752917-277.3791697C969.4705127 425.15208602 766.29078108 146.25529673999995 510.60661969 146.25529673999995L510.60661969 146.25529673999995zM508.860487 611.43184301c-107.94971105 0-195.09238412-82.07193429-195.09238412-184.25667767 0-101.20363061 87.14267185-183.74873483 195.09238412-183.74873482 108.50733139 0 196.24612235 82.54013682 196.24612234 183.74873482C705.10661056 529.3611502599999 617.36781839 611.43184301 508.860487 611.43184301L508.860487 611.43184301zM508.29790049 346.61836632999996c-51.3792543 0-92.95483275 39.25568292-92.95483275 87.09423712 0 47.83731265 41.57557965 86.5974718 92.95483275 86.59747179 51.34572172 0 92.32890812-38.76140069 92.32890812-86.59747179C600.62680861 385.87529079 559.64362221 346.61836632999996 508.29790049 346.61836632999996L508.29790049 346.61836632999996z"  horiz-adv-x="1024" />

    
    <glyph glyph-name="delete-line" unicode="&#59148;" d="M722.71872 301.05600000000004c6.42048-15.17568 9.71776-32.6144 9.71776-52.44928 0-51.87584-18.97472-93.98272-56.8832-126.33088-37.92896-32.33792-88.576-48.50688-151.94112-48.50688-73.8816 0-129.77152 15.34976-167.70048 46.04928-37.91872 30.69952-57.21088 76.9024-57.856 138.63936l85.68832 0c1.31072-36.44416 13.37344-63.52896 36.18816-81.26464 22.82496-17.72544 57.05728-26.59328 102.68672-26.59328 37.10976 0 66.56 7.38304 88.40192 22.15936s32.75776 35.28704 32.75776 61.56288c0 18.71872-7.0656 33.64864-21.16608 44.81024-9.74848 7.69024-26.22464 14.99136-49.08032 21.9136L722.71872 301.04576zM517.00736 404.48l-20.46976 5.1712c-40.3968 10.16832-66.67264 19.78368-78.7968 28.80512-12.16512 9.02144-18.2272 23.06048-18.2272 42.10688 0 23.9616 10.26048 42.35264 30.78144 55.16288s45.21984 19.2 74.12736 19.2c39.71072 0 70.17472-6.89152 91.35104-20.6848 21.16608-13.79328 32.4096-36.44416 33.73056-67.96288l85.69856 0c-1.95584 48.26112-19.93728 87.9104-53.93408 118.9376-33.97632 31.03744-82.82112 46.5408-146.52416 46.5408-59.7504 0-108.1856-15.104-145.28512-45.312-37.09952-30.208-55.64416-71.24992-55.64416-123.12576 0-22.46656 4.66944-42.0352 13.79328-58.85952L517.00736 404.45952zM817.48992 378.88l-537.6 0c-14.14144 0-25.6-11.45856-25.6-25.6s11.45856-25.6 25.6-25.6l537.6 0c14.14144 0 25.6 11.45856 25.6 25.6S831.63136 378.88 817.48992 378.88z"  horiz-adv-x="1024" />

    
    <glyph glyph-name="code-block" unicode="&#59039;" d="M512 825.37931h335.536552C847.501241 825.37931 847.448276-57.34400000000005 847.448276-57.34400000000005L176.498759-57.37931000000003C176.569379-57.37931000000003 176.551724 384 176.551724 384l-0.052965 226.392276L344.275862 825.37931H512zM298.743172 882.370207l-185.37931-238.344828A35.310345 35.310345 0 0 1 105.931034 622.344828V-57.25572399999999A70.656 70.656 0 0 1 176.498759-128h671.002482A70.638345 70.638345 0 0 1 918.068966-57.34400000000005V825.344A70.550069 70.550069 0 0 1 847.536552 896H326.62069a35.310345 35.310345 0 0 1-27.877518-13.629793zM317.793103 648.686345C317.793103 648.792276 176.498759 648.827586 176.498759 648.827586v-70.620689H317.793103c38.982621 0 70.62069 31.532138 70.62069 70.479448V825.37931h-70.62069v-176.692965z m137.286621-492.402759a35.310345 35.310345 0 0 1 69.08469-14.689103l62.411034 293.570207a35.310345 35.310345 0 0 1-69.084689 14.689103l-62.411035-293.570207z m276.462345 117.142069a26.182621 26.182621 0 0 0 0 37.040552l-103.282759-103.265104a35.310345 35.310345 0 0 1 49.964138-49.928827l103.247449 103.247448a44.438069 44.438069 0 0 1 0 62.852414l-103.265104 103.247448a35.310345 35.310345 0 0 1-49.928827-49.928827l103.265103-103.282759z m-471.357793 49.928828a44.438069 44.438069 0 0 1 0-62.834759l103.265103-103.247448a35.310345 35.310345 0 0 1 49.928828 49.928827l-103.265104 103.265104c10.24-10.24 10.24-26.800552 0-37.040552l103.282759 103.265104a35.310345 35.310345 0 0 1-49.964138 49.928827l-103.247448-103.265103z"  horiz-adv-x="1024" />

    
    <glyph glyph-name="link" unicode="&#58979;" d="M379.064 102.74300000000005c-20.447-20.383-53.6-20.383-74.113 0l-74.18 74.18c-20.447 20.51-20.447 53.666 0 74.177l95.916 95.853L416.734 437c-40.184 23.737-92.627 18.577-127.137-15.87l-132.94-133.004c-40.96-40.896-40.96-107.333 0-148.23L267.86 28.69399999999996c40.96-41.025 107.334-41.025 148.295 0l132.94 132.876c34.51 34.447 39.543 86.951 15.932 127.201L379.064 102.74300000000005z m488.292 525.445L756.152 739.392c-40.96 40.894-107.334 40.894-148.294 0l-132.94-133.007c-34.51-34.444-39.54-86.82-15.933-127.07L644.95 665.213c20.446 20.513 53.603 20.513 74.114 0l74.114-74.178c20.514-20.513 20.514-53.666 0-74.18l-185.9-185.898c40.187-23.609 92.628-18.576 127.135 15.997l132.943 132.877c40.958 41.024 40.958 107.333 0 148.357z m-497.514-367.8l18.51-18.575c15.353-15.351 40.25-15.351 55.603 0l210.217 210.28c15.414 15.353 15.414 40.25 0 55.603l-18.513 18.577c-15.353 15.35-40.25 15.35-55.604 0l-210.213-210.28c-15.416-15.354-15.416-40.25 0-55.604z m0 0"  horiz-adv-x="1024" />

    
    <glyph glyph-name="fenlan" unicode="&#59027;" d="M416 832h-288c-35.2 0-64-28.8-64-64v-768c0-35.2 28.8-64 64-64h288c35.2 0 64 28.8 64 64v768c0 35.2-28.8 64-64 64zM416 32c0-19.2-12.8-32-32-32h-224c-19.2 0-32 12.8-32 32v704c0 19.2 12.8 32 32 32h224c19.2 0 32-12.8 32-32v-704zM896 832h-288c-35.2 0-64-28.8-64-64v-768c0-35.2 28.8-64 64-64h288c35.2 0 64 28.8 64 64v768c0 35.2-28.8 64-64 64zM896 32c0-19.2-12.8-32-32-32h-224c-19.2 0-32 12.8-32 32v704c0 19.2 12.8 32 32 32h224c19.2 0 32-12.8 32-32v-704z"  horiz-adv-x="1024" />

    
    <glyph glyph-name="picture" unicode="&#58939;" d="M290.1 449.4c45.4 0 82.4 38.1 82.4 84.9 0 46.8-37 84.8-82.4 84.8-45.4 0-82.4-38.1-82.4-84.8-0.1-46.8 36.9-84.9 82.4-84.9z m0 126.8c21.3 0 38.7-18.8 38.7-41.9 0-23.1-17.3-42-38.7-42-21.3 0-38.7 18.8-38.7 42 0 23.1 17.3 41.9 38.7 41.9zM842.4 704.2H182.2c-65 0-117.9-51.9-117.9-115.7v-408.6c0-63.8 52.9-115.7 117.9-115.7h660.1c65 0 117.9 51.9 117.9 115.7V588.6c0.1 63.7-52.8 115.6-117.8 115.6zM108.1 588.6c0 40.1 33.3 72.7 74.2 72.7h660.1c40.9 0 74.2-32.6 74.2-72.7V180c0-3.9-0.3-7.7-0.9-11.5L706.7 444c-17.1 22.5-43.2 35.4-71.8 35.4h-0.5c-28.8-0.2-55-13.4-71.9-36.2l-79.7-107.8c-8-10.8-20.4-17.5-34-18.4-13.6-0.9-26.8 4.2-36.2 13.8l-13.9 14.3c-17.5 18-42.1 28-67.4 27.3-25.4-0.7-49.3-12-65.7-31L110.5 161.60000000000002c-1.6 5.9-2.4 12-2.4 18.3V588.6z m74.1-481.4c-17.9 0-34.4 6.3-47.2 16.7 0.6 0.5 1.1 1.1 1.6 1.7l162.4 188c8.5 9.8 20.4 15.5 33.6 15.9 13.1 0.4 25.4-4.6 34.5-13.9l13.9-14.3c18.4-19 44.2-28.8 70.8-27.1 26.6 1.7 50.8 14.9 66.5 36L597.9 418c8.6 11.7 22 18.4 36.7 18.5h0.3c14.6 0 28-6.6 36.7-18.1l218.5-288.3c0.9-1.2 1.9-2.2 2.9-3.2-13.3-12.2-31.1-19.8-50.7-19.8H182.2z"  horiz-adv-x="1024" />

    
    <glyph glyph-name="last-step" unicode="&#58912;" d="M967.111111-71.11111100000005h-113.777778v113.777778c0 221.866667-176.355556 398.222222-398.222222 398.222222H113.777778V554.666667h341.333333c284.444444 0 512-227.555556 512-512v-113.777778zM409.6 133.68888900000002L51.2 497.777778 409.6 856.177778l85.333333-79.644445-284.444444-278.755555 284.444444-284.444445z"  horiz-adv-x="1024" />

    
    <glyph glyph-name="next-step" unicode="&#58914;" d="M170.666667-71.11111100000005H56.888889v113.777778c0 284.444444 227.555556 512 512 512h341.333333v-113.777778h-341.333333c-221.866667 0-398.222222-176.355556-398.222222-398.222222v-113.777778zM614.4 133.68888900000002L529.066667 213.33333300000004l284.444444 284.444445-284.444444 278.755555L614.4 856.177778 972.8 497.777778z"  horiz-adv-x="1024" />

    
    <glyph glyph-name="todo-list" unicode="&#59375;" d="M837.818182 46.54545499999995c0-32.093091-26.112-58.181818-58.181818-58.181819h-512A58.251636 58.251636 0 0 0 209.454545 46.54545499999995v558.545454c0 32.093091 26.112 58.181818 58.181819 58.181818h66.141091l-4.654546-46.545454H290.909091a34.909091 34.909091 0 1 1 0-69.818182h465.454545a34.909091 34.909091 0 1 1 0 69.818182h-38.213818l-4.654545 46.545454H779.636364c32.069818 0 58.181818-26.088727 58.181818-58.181818v-558.545454zM414.557091 769.163636A11.566545 11.566545 0 0 0 426.123636 779.636364h195.025455c6.004364 0 10.984727-4.491636 11.566545-10.472728L636.346182 733.090909h-0.023273l11.636364-116.363636H399.313455l11.636363 116.363636h-0.023273l3.630546 36.072727zM779.636364 733.090909h-73.146182l-4.282182 43.031273A81.221818 81.221818 0 0 1 621.149091 849.454545h-195.025455a81.221818 81.221818 0 0 1-81.058909-73.332363L340.782545 733.090909H267.636364A128.139636 128.139636 0 0 1 139.636364 605.090909v-558.545454c0-70.562909 57.413818-128 128-128h512c70.586182 0 128 57.437091 128 128v558.545454C907.636364 675.653818 850.222545 733.090909 779.636364 733.090909z m-60.509091-286.254545a34.955636 34.955636 0 0 1-48.872728-6.981819l-187.392-249.879272-111.406545 92.858182a34.932364 34.932364 0 0 1-44.706909-53.66691l120.832-100.70109a58.577455 58.577455 0 0 1 43.985454-13.032728 58.414545 58.414545 0 0 1 39.796364 22.830546L726.109091 397.963636a34.909091 34.909091 0 0 1-6.981818 48.896"  horiz-adv-x="1024" />

    
    <glyph glyph-name="out" unicode="&#58888;" d="M561.295186-73.00537099999997H81.142076V841.105361h480.05312c15.198516 0 27.497315 12.298799 27.497314 27.497315S576.493702 896 561.295186 896H53.744751C38.546236 896 26.247437 883.701201 26.247437 868.502685v-969.00537c0-15.198516 12.298799-27.497315 27.497314-27.497315h507.550435c15.198516 0 27.497315 12.298799 27.497315 27.497315s-12.298799 27.497315-27.497315 27.497314zM989.653354 403.448101L739.077824 654.123621c-10.698955 10.698955-28.097256 10.698955-38.796211 0-10.698955-10.698955-10.698955-28.097256 0-38.796212L903.961722 411.54731H387.812128c-15.198516 0-27.497315-12.298799-27.497315-27.497315s12.298799-27.497315 27.497315-27.497315H903.961722L700.181623 152.872571c-10.698955-10.698955-10.698955-28.097256 0-38.796211 5.399473-5.399473 12.398789-7.999219 19.398106-7.999219s14.098623 2.699736 19.398105 7.999219l250.67552 250.67552c10.798945 10.598965 10.798945 27.997266 0 38.696221z"  horiz-adv-x="1024" />

    
    <glyph glyph-name="clear" unicode="&#58931;" d="M987.428571 627.809524h-950.857142a36.571429 36.571429 0 0 0 0 73.142857H243.809524V822.857143a73.142857 73.142857 0 0 0 73.142857 73.142857h390.095238a73.142857 73.142857 0 0 0 73.142857-73.142857v-121.904762h207.238095a36.571429 36.571429 0 0 0 0-73.142857zM707.047619 774.095238a48.761905 48.761905 0 0 1-48.761905 48.761905H365.714286a48.761905 48.761905 0 0 1-48.761905-48.761905v-73.142857h390.095238V774.095238zM341.333333 79.23809500000004v390.095238a36.571429 36.571429 0 0 0 73.142857 0v-390.095238a36.571429 36.571429 0 0 0-73.142857 0z m268.190477 0v390.095238a36.571429 36.571429 0 0 0 73.142857 0v-390.095238a36.571429 36.571429 0 0 0-73.142857 0zM158.47619 579.0476189999999a36.254476 36.254476 0 0 0 34.133334-24.380952H195.047619v-560.761905a48.761905 48.761905 0 0 1 48.761905-48.761905h536.380952a48.761905 48.761905 0 0 1 48.761905 48.761905V554.666667h2.438095a36.059429 36.059429 0 0 0 68.266667 0h2.438095v-609.52381a73.142857 73.142857 0 0 0-73.142857-73.142857H195.047619a73.142857 73.142857 0 0 0-73.142857 73.142857V554.666667h2.438095a36.254476 36.254476 0 0 0 34.133333 24.380952z"  horiz-adv-x="1024" />

    
    <glyph glyph-name="head" unicode="&#59106;" d="M308.623635 434.844091h406.75273v355.90864a50.844091 50.844091 0 1 0 101.688183 0v-813.505462a50.844091 50.844091 0 0 0-101.688183 0v355.90864h-406.75273v-355.90864a50.844091 50.844091 0 0 0-101.688183 0v813.505462a50.844091 50.844091 0 0 0 101.688183 0z"  horiz-adv-x="1024" />

    
    <glyph glyph-name="bold" unicode="&#59107;" d="M694.021847 403.320755a208.460775 208.460775 0 0 0 112.873883-74.740815 197.275074 197.275074 0 0 0 37.624627-118.975173 234.899702 234.899702 0 0 0-34.065541-123.551142A203.376365 203.376365 0 0 0 711.817279 3.686196999999993a440.309831 440.309831 0 0 0-168.802383-26.438928h-254.220457a50.844091 50.844091 0 0 0-50.844091 50.844091V727.197617a50.844091 50.844091 0 0 0 50.844091 50.844091h249.644489q145.922542 0 203.376365-63.555114a203.376365 203.376365 0 0 0 59.996028-140.838133 180.496524 180.496524 0 0 0-27.45581-97.112215 206.935452 206.935452 0 0 0-80.333664-73.215491z m-323.368421 39.14995h147.956306A563.860973 563.860973 0 0 1 610.129096 448.571996a122.53426 122.53426 0 0 1 64.063555 31.523337 101.688183 101.688183 0 0 1 27.964251 79.825223A111.34856 111.34856 0 0 1 672.667329 641.779543a121.008937 121.008937 0 0 1-67.114201 33.04866 681.310824 681.310824 0 0 1-101.688183 6.101291H370.653426a25.422046 25.422046 0 0 1-25.422046-25.422046v-187.614697a25.422046 25.422046 0 0 1 25.422046-25.422046z m0-370.144985h173.886792a227.781529 227.781529 0 0 1 148.464747 36.607746 127.618669 127.618669 0 0 1 41.692155 101.688182 124.059583 124.059583 0 0 1-44.234359 101.688183 259.304866 259.304866 0 0 1-159.650447 36.099305H370.653426a25.422046 25.422046 0 0 1-25.422046-25.422046v-225.239324a25.422046 25.422046 0 0 1 25.422046-25.422046z"  horiz-adv-x="1024" />

    
    <glyph glyph-name="unordered-list" unicode="&#59116;" d="M359.467726 739.90864h508.440914a50.844091 50.844091 0 0 0 0-101.688183h-508.440914a50.844091 50.844091 0 0 0 0 101.688183z m-203.376366-101.688183a50.844091 50.844091 0 1 0 50.844092 50.844091 50.844091 50.844091 0 0 0-50.844092-50.844091z m0-305.064548a50.844091 50.844091 0 1 0 50.844092 50.844091 50.844091 50.844091 0 0 0-50.844092-50.844091z m0-305.064549a50.844091 50.844091 0 1 0 50.844092 50.844092 50.844091 50.844091 0 0 0-50.844092-50.844092z m203.376366 406.752731h508.440914a50.844091 50.844091 0 0 0 0-101.688182h-508.440914a50.844091 50.844091 0 0 0 0 101.688182z m0-305.064548h508.440914a50.844091 50.844091 0 0 0 0-101.688183h-508.440914a50.844091 50.844091 0 0 0 0 101.688183z"  horiz-adv-x="1024" />

    
    <glyph glyph-name="italic" unicode="&#59119;" d="M512 678.89573a33.048659 33.048659 0 0 1-7.118173 33.048659 92.027805 92.027805 0 0 1-47.285005 15.253228 17.286991 17.286991 0 0 0-15.761668 16.270109 26.438928 26.438928 0 0 0 0 7.118173v9.660377q33.5571-3.559086 66.097319-5.084409t60.504468 0h56.945383q33.5571 0 63.555114 5.084409a94.061569 94.061569 0 0 0 0-16.77855 14.744786 14.744786 0 0 0-15.761668-16.77855 107.789474 107.789474 0 0 1-50.844092-15.761669 53.894737 53.894737 0 0 1-18.812314-33.5571L498.780536 104.35749799999996a31.014896 31.014896 0 0 1 7.626614-32.540219 112.365442 112.365442 0 0 1 50.844091-15.761668 16.270109 16.270109 0 0 0 14.744787-16.77855 96.095333 96.095333 0 0 0 0-17.795432q-33.5571 3.559086-68.131083 5.084409H384.889772q-33.048659 0-63.046674-5.084409a96.095333 96.095333 0 0 0 0 17.795432 14.236346 14.236346 0 0 0 13.219464 15.761668 131.686197 131.686197 0 0 1 50.844091 16.270109 50.844091 50.844091 0 0 1 20.337637 33.04866z"  horiz-adv-x="1024" />

    
    <glyph glyph-name="ordered-list" unicode="&#59120;" d="M359.467726 739.90864h508.440914a50.844091 50.844091 0 0 0 0-101.688183h-508.440914a50.844091 50.844091 0 0 0 0 101.688183z m0-305.064549h508.440914a50.844091 50.844091 0 0 0 0-101.688182h-508.440914a50.844091 50.844091 0 0 0 0 101.688182z m0-305.064548h508.440914a50.844091 50.844091 0 0 0 0-101.688183h-508.440914a50.844091 50.844091 0 0 0 0 101.688183zM123.042701 736.857994v23.896723a156.599801 156.599801 0 0 1 23.388282 0 33.048659 33.048659 0 0 1 17.286991 9.660377 31.014896 31.014896 0 0 1 7.118173 12.711023 29.489573 29.489573 0 0 1 0 7.118173H203.376365v-177.445879h-38.133068V736.857994z m0-394.041708a101.688183 101.688183 0 0 0 35.590864 38.133069 262.355511 262.355511 0 0 1 31.523337 24.913604 37.116187 37.116187 0 0 1 11.1857 25.930487 28.472691 28.472691 0 0 1-6.101291 18.812314 22.3714 22.3714 0 0 1-18.303873 7.626613 21.862959 21.862959 0 0 1-24.405164-11.694141 59.487587 59.487587 0 0 1-4.067527-21.862959h-33.04866a86.943396 86.943396 0 0 0 8.135055 37.116187 50.844091 50.844091 0 0 0 50.844091 26.947368 63.555114 63.555114 0 0 0 45.251242-15.761668 54.911619 54.911619 0 0 0 16.77855-41.692155 56.945382 56.945382 0 0 0-11.694141-35.590864 118.975174 118.975174 0 0 0-25.930487-22.879841l-14.236345-10.168818-18.303873-13.727905a40.166832 40.166832 0 0 1-8.135055-9.660377h78.299901v-31.014896H113.382324a84.401192 84.401192 0 0 0 8.135054 35.082423z m25.422046-285.235353a40.675273 40.675273 0 0 1 3.559086-17.795432 23.896723 23.896723 0 0 1 23.388282-13.219463 25.930487 25.930487 0 0 1 16.270109 5.084409 26.438928 26.438928 0 0 1 7.626614 20.337636 23.388282 23.388282 0 0 1-14.236345 23.896723 73.215492 73.215492 0 0 1-25.422046 6.609732v25.422046a67.114201 67.114201 0 0 1 23.896723 3.559086 20.846077 20.846077 0 0 1 11.694141 21.86296 23.388282 23.388282 0 0 1-6.101291 16.77855 21.862959 21.862959 0 0 1-16.77855 6.609732 21.354518 21.354518 0 0 1-18.303873-8.135055 33.5571 33.5571 0 0 1-5.59285-21.354518h-33.04866a88.97716 88.97716 0 0 0 4.575969 25.422045 57.453823 57.453823 0 0 0 13.727904 19.320755 47.793446 47.793446 0 0 0 16.27011 9.660377 71.690169 71.690169 0 0 0 23.388282 2.542205 62.538232 62.538232 0 0 0 41.692154-13.219464 44.234359 44.234359 0 0 0 15.761669-35.590864 39.658391 39.658391 0 0 0-9.660378-26.947368 32.031778 32.031778 0 0 0-12.202582-9.151937 25.422046 25.422046 0 0 0 13.727905-8.135054 44.234359 44.234359 0 0 0 13.727905-34.065541 57.453823 57.453823 0 0 0-15.761668-40.166833 60.504469 60.504469 0 0 0-46.776565-17.286991 56.945382 56.945382 0 0 0-50.844091 24.913605 74.232373 74.232373 0 0 0-8.643495 34.573982z"  horiz-adv-x="1024" />

    
    <glyph glyph-name="quote" unicode="&#59124;" d="M156.09136 289.42999a457.596822 457.596822 0 0 0 221.680239 392.516385 50.844091 50.844091 0 1 0 50.844091-86.943396 355.90864 355.90864 0 0 1-138.804369-152.532274h16.77855a152.532274 152.532274 0 1 0-152.532274-152.532274z m406.752731 0a457.596822 457.596822 0 0 0 221.680239 392.007944 50.844091 50.844091 0 1 0 50.844091-86.943396 355.90864 355.90864 0 0 1-138.804369-152.532274h16.77855a152.532274 152.532274 0 1 0-152.532274-152.532274z"  horiz-adv-x="1024" />

    
    <glyph glyph-name="up" unicode="&#58886;" d="M51.4 128.20000000000005c-19.7 19.7-19.7 51.7 0 71.4l428.2 428.2c19.7 19.7 51.7 19.7 71.4 0 19.7-19.7 19.7-51.7 0-71.4L122.8 128.20000000000005c-19.7-19.7-51.7-19.7-71.4 0zM479.6 627.8c19.7 19.7 51.7 19.7 71.4 0l428.2-428.2c19.7-19.7 19.7-51.7 0-71.4-19.7-19.7-51.7-19.7-71.4 0L479.6 556.4c-19.7 19.8-19.7 51.7 0 71.4z"  horiz-adv-x="1024" />

    
    <glyph glyph-name="table" unicode="&#59082;" d="M912.1 645.5v-523.2c0-21.1-7.6-39.2-22.6-54.3-15.1-15.1-33.2-22.6-54.3-22.6H189c-21.1 0-39.2 7.5-54.3 22.6s-22.6 33.2-22.6 54.3V645.5c0 21.1 7.5 39.2 22.6 54.3 15.1 15.1 33.2 22.6 54.3 22.6h646.3c21.1 0 39.2-7.6 54.3-22.6 14.9-14.9 22.5-33 22.5-54.3z m-554-153.7v92.3c0 4.5-1.4 8.2-4.3 11-2.9 2.9-6.6 4.3-11 4.3H188.9c-4.5 0-8.2-1.4-11-4.3-2.9-2.9-4.3-6.6-4.3-11v-92.3c0-4.5 1.4-8.2 4.3-11 2.9-2.9 6.6-4.3 11-4.3h153.9c4.5 0 8.2 1.4 11 4.3 2.9 2.8 4.3 6.5 4.3 11z m0-184.8v92.3c0 4.5-1.4 8.2-4.3 11-2.9 2.9-6.6 4.3-11 4.3H188.9c-4.5 0-8.2-1.4-11-4.3-2.9-2.9-4.3-6.6-4.3-11V307c0-4.5 1.4-8.2 4.3-11 2.9-2.9 6.6-4.3 11-4.3h153.9c4.5 0 8.2 1.4 11 4.3 2.9 2.8 4.3 6.6 4.3 11z m0-184.6v92.3c0 4.5-1.4 8.2-4.3 11-2.9 2.9-6.6 4.3-11 4.3H188.9c-4.5 0-8.2-1.4-11-4.3-2.9-2.9-4.3-6.6-4.3-11v-92.3c0-4.5 1.4-8.2 4.3-11 2.9-2.9 6.6-4.3 11-4.3h153.9c4.5 0 8.2 1.4 11 4.3 2.9 2.9 4.3 6.5 4.3 11z m246.2 369.4v92.3c0 4.5-1.4 8.2-4.3 11-2.9 2.9-6.6 4.3-11 4.3H435c-4.5 0-8.2-1.4-11-4.3-2.9-2.9-4.3-6.6-4.3-11v-92.3c0-4.5 1.4-8.2 4.3-11 2.9-2.9 6.6-4.3 11-4.3h154c4.5 0 8.2 1.4 11 4.3 2.9 2.8 4.3 6.5 4.3 11z m0-184.8v92.3c0 4.5-1.4 8.2-4.3 11-2.9 2.9-6.6 4.3-11 4.3H435c-4.5 0-8.2-1.4-11-4.3-2.9-2.9-4.3-6.6-4.3-11V307c0-4.5 1.4-8.2 4.3-11 2.9-2.9 6.6-4.3 11-4.3h154c4.5 0 8.2 1.4 11 4.3 2.9 2.8 4.3 6.6 4.3 11z m0-184.6v92.3c0 4.5-1.4 8.2-4.3 11-2.9 2.9-6.6 4.3-11 4.3H435c-4.5 0-8.2-1.4-11-4.3-2.9-2.9-4.3-6.6-4.3-11v-92.3c0-4.5 1.4-8.2 4.3-11 2.9-2.9 6.6-4.3 11-4.3h154c4.5 0 8.2 1.4 11 4.3 2.9 2.9 4.3 6.5 4.3 11z m246.2 369.4v92.3c0 4.5-1.4 8.2-4.3 11-2.9 2.9-6.6 4.3-11 4.3H681.3c-4.5 0-8.2-1.4-11-4.3-2.9-2.9-4.3-6.6-4.3-11v-92.3c0-4.5 1.4-8.2 4.3-11 2.9-2.9 6.6-4.3 11-4.3h153.9c4.5 0 8.2 1.4 11 4.3 2.9 2.8 4.3 6.5 4.3 11z m0-184.8v92.3c0 4.5-1.4 8.2-4.3 11-2.9 2.9-6.6 4.3-11 4.3H681.3c-4.5 0-8.2-1.4-11-4.3-2.9-2.9-4.3-6.6-4.3-11V307c0-4.5 1.4-8.2 4.3-11 2.9-2.8 6.6-4.3 11-4.3h153.9c4.5 0 8.2 1.4 11 4.3s4.3 6.6 4.3 11z m0-184.6v92.3c0 4.5-1.4 8.2-4.3 11-2.9 2.9-6.6 4.3-11 4.3H681.3c-4.5 0-8.2-1.4-11-4.3-2.9-2.9-4.3-6.6-4.3-11v-92.3c0-4.5 1.4-8.2 4.3-11 2.9-2.9 6.6-4.3 11-4.3h153.9c4.5 0 8.2 1.4 11 4.3 2.9 2.9 4.3 6.5 4.3 11z"  horiz-adv-x="1024" />

    
    <glyph glyph-name="save" unicode="&#58952;" d="M847.8 830.8h-31.6v0.8H207.9v-0.8h-31.6c-61.8 0-111.9-50-111.9-111.8v-670.8c0-61.8 50.1-111.8 111.9-111.8h671.5c61.8 0 111.9 50.1 111.9 111.8V719c0 61.7-50.2 111.8-111.9 111.8z m-567.9-71.1H744v-143.8c0-26.5-23.1-48-51.6-48H331.5c-28.5 0-51.6 21.5-51.6 48V759.7z m608.6-698.4c0-29.6-24.1-53.7-53.8-53.7H189.2c-29.7 0-53.8 24-53.8 53.7V706c0 29.6 24.1 53.7 53.8 53.7h18.6V608c0-61.8 49.5-111.8 110.6-111.8h387.1c61.1 0 110.6 50.1 110.6 111.8V759.7h18.5c29.7 0 53.8-24 53.8-53.7v-644.7zM628 607.6c19.8 0 36 16.2 36 36v40c0 19.8-16.2 36-36 36s-36-16.2-36-36v-40c0-19.8 16.2-36 36-36z"  horiz-adv-x="1024" />

    
    <glyph glyph-name="down" unicode="&#58900;" d="M548.352 165.37599999999998l394.24 360.96c21.504 19.456 23.04 53.248 3.072 74.24-19.456 21.504-53.248 23.04-74.24 3.072l-358.912-328.704L153.088 604.1600000000001c-21.504 19.456-54.784 17.92-74.24-3.584-19.456-21.504-17.92-54.784 3.584-74.24l394.752-360.448c1.024-0.512 1.536-1.536 2.56-2.048 19.456-16.896 49.152-16.384 68.608 1.536z"  horiz-adv-x="1024" />

    
    <glyph glyph-name="avatar-1" unicode="&#59207;" d="M511.8 383.70000000000005m-447.6 0a447.6 447.6 0 1 1 895.2 0 447.6 447.6 0 1 1-895.2 0ZM732.4-5.7000000000000455c112.1 63.6 193.9 174.2 218.9 305L619.5 631.1l-128.8-99.7-154.3-127 86.7-86.7-8.3-5.8 317.6-317.6zM632.7 265.6h-70c-3.9 0-7 3.1-7 7v48.6H468v-48.6c0-3.9-3.1-7-7-7h-70c-56.2 0-101.8-45.6-101.8-101.8v-168.4c65.6-37.7 141.6-59.2 222.7-59.2s157.1 21.6 222.7 59.2V163.79999999999995c-0.1 56.3-45.7 101.8-101.9 101.8zM632.7 265.6h-70c-3.9 0-7 3.1-7 7v48.6h-44.9v-385.1h1c81.1 0 157.1 21.6 222.7 59.2V163.79999999999995c0 56.3-45.6 101.8-101.8 101.8zM661 261.6c-9 2.6-18.5 4-28.3 4h-23.2c-8.7-46-49.1-80.8-97.7-80.8s-89 34.8-97.7 80.8h-23.2c-9.8 0-19.3-1.4-28.3-4v-299.9c46.7-16.5 96.9-25.5 149.2-25.5 52.3 0 102.5 9 149.2 25.5V261.6zM632.7 265.6h-23.2c-8.7-46-49.1-80.8-97.7-80.8h-1v-248.7h1c52.3 0 102.5 9 149.2 25.5v300c-9 2.6-18.5 4-28.3 4zM366 423.2m-35.1 0a35.1 35.1 0 1 1 70.2 0 35.1 35.1 0 1 1-70.2 0ZM650.1 423.2m-35.1 0a35.1 35.1 0 1 1 70.2 0 35.1 35.1 0 1 1-70.2 0ZM512 277.20000000000005h-7.9c-73.1 0-132.3 59.2-132.3 132.3V530.3c0 73.1 59.2 132.3 132.3 132.3h7.9c73.1 0 132.3-59.2 132.3-132.3v-120.8c0-73-59.2-132.3-132.3-132.3zM512 662.6h-1.2v-385.4h1.2c73.1 0 132.3 59.2 132.3 132.3V530.3c0 73.1-59.2 132.3-132.3 132.3zM629.9 617.9c-26 37-69 61.2-117.6 61.2h-8.6c-79.3 0-143.6-64.3-143.6-143.6v-112.3h21.1v59.3c64 6.5 126.9 19.1 182.1 46.6 19.8-22.8 42.8-43.1 68.1-59.7v-46.3H656V535.3c0 30.9-9.7 59.3-26.1 82.6zM629.9 617.9c-26 37-69 61.2-117.6 61.2h-1.6v-171.3c18.1 5.9 35.6 12.9 52.5 21.3 19.8-22.8 42.8-43.1 68.1-59.7v-46.3H656V535.3c0 30.9-9.7 59.3-26.1 82.6zM443.8 438.8m-13.6 0a13.6 13.6 0 1 1 27.2 0 13.6 13.6 0 1 1-27.2 0ZM572.3 438.8m-13.6 0a13.6 13.6 0 1 1 27.2 0 13.6 13.6 0 1 1-27.2 0ZM508 327.1c-24.6 0-44.5 20-44.5 44.5 0 4.2 3.4 7.5 7.5 7.5 4.2 0 7.5-3.4 7.5-7.5 0-16.2 13.2-29.4 29.4-29.4s29.4 13.2 29.4 29.4c0 4.2 3.4 7.5 7.5 7.5 4.2 0 7.5-3.4 7.5-7.5 0.3-24.5-19.7-44.5-44.3-44.5zM552.6 371.6c0 4.2-3.4 7.5-7.5 7.5s-7.5-3.4-7.5-7.5c0-15.3-11.8-27.9-26.7-29.3v-15.1c23.1 1.5 41.7 20.8 41.7 44.4zM355.1 539.7h307.4v-63.3H355.1zM510.8 539.7h151.7v-63.3H510.8z"  horiz-adv-x="1024" />

    
    <glyph glyph-name="avatar-2" unicode="&#59210;" d="M511.3 384.2m-448 0a448 448 0 1 1 896 0 448 448 0 1 1-896 0ZM828.1 67.39999999999998c116.1 116.1 155.1 280 117.1 428.3l-85.8 85.8-32.1-135.7-204.5 204.6-6.8-11.3-57.7 57.7-71.6-77.8-177-148.5 46.2-46.2-16.6-24 80-80-6.4-6.7 88-88 231.8-231.1c34.1 19.5 66.3 43.7 95.4 72.9zM555.2 273v48.7h-87.8V273c0-3.9-3.1-7-7-7h-60.5v-168h222.9V266h-60.5c-3.9-0.1-7.1 3.1-7.1 7zM622.8 265.9h-60.5c-3.9 0-7 3.1-7 7v48.7h-45.9v-223.7h113.5l-0.1 168zM365.4 423.7m-35.1 0a35.1 35.1 0 1 1 70.2 0 35.1 35.1 0 1 1-70.2 0ZM649.8 423.7m-35.1 0a35.1 35.1 0 1 1 70.2 0 35.1 35.1 0 1 1-70.2 0ZM511.6 277.6h-7.9c-73.1 0-132.4 59.3-132.4 132.4V530.9c0 73.1 59.3 132.4 132.4 132.4h7.9c73.1 0 132.4-59.3 132.4-132.4V410c0-73.2-59.3-132.4-132.4-132.4zM511.6 663.3h-2.2v-385.8h2.2c73.1 0 132.4 59.3 132.4 132.4v121c0 73.1-59.3 132.4-132.4 132.4zM443.3 439.3m-13.6 0a13.6 13.6 0 1 1 27.2 0 13.6 13.6 0 1 1-27.2 0ZM571.9 439.3m-13.6 0a13.6 13.6 0 1 1 27.2 0 13.6 13.6 0 1 1-27.2 0ZM632.4 265.9h-46.7c0-41-33.3-76.9-74.3-76.9S437 224.89999999999998 437 265.9h-46.7c-56.3 0-101.9-45.6-101.9-101.9v-168.6c65.6-37.7 141.7-59.3 222.9-59.3s157.3 21.6 222.9 59.3V164.10000000000002c0 56.2-45.6 101.8-101.8 101.8zM632.4 265.9h-46.7c0-41-33.3-76.9-74.3-76.9-0.7 0-1.3 0-2 0.1v-252.9h2c81.1 0 157.3 21.6 222.9 59.3V164.10000000000002c-0.1 56.2-45.7 101.8-101.9 101.8zM511.3 150.39999999999998c63 0 114.4 53.1 117.9 115.5h-43.6c0-41-33.3-76.9-74.3-76.9S437 224.89999999999998 437 265.9h-43.6c3.5-62.3 55-115.5 117.9-115.5zM585.6 265.9c0-41-33.3-76.9-74.3-76.9-0.7 0-1.3 0-2 0.1v-38.6c0.7 0 1.3-0.1 2-0.1 63 0 114.4 53.1 117.9 115.5h-43.6zM511.3 303c-45.7 0-83 37.2-83 83 0 10 8.1 18.1 18.1 18.1s18.1-8.1 18.1-18.1c0-25.8 21-46.8 46.8-46.8s46.8 21 46.8 46.8c0 10 8.1 18.1 18.1 18.1 10 0 18.1-8.1 18.1-18.1 0-45.8-37.2-83-83-83zM576.2 393.5c4.2 0 7.5-3.4 7.5-7.5 0-39.9-32.5-72.4-72.4-72.4S438.9 346 438.9 386c0 4.2 3.4 7.5 7.5 7.5 4.2 0 7.5-3.4 7.5-7.5 0-31.6 25.7-57.3 57.3-57.3s57.3 25.7 57.3 57.3c0.2 4.1 3.5 7.5 7.7 7.5m0 21.1c-15.8 0-28.7-12.9-28.7-28.7 0-20-16.2-36.2-36.2-36.2-20 0-36.2 16.2-36.2 36.2 0 15.8-12.9 28.7-28.7 28.7-15.8 0-28.7-12.9-28.7-28.7 0-51.6 42-93.5 93.5-93.5s93.5 42 93.5 93.5c0.2 15.9-12.7 28.7-28.5 28.7zM576.2 404.1c-10 0-18.1-8.1-18.1-18.1 0-25.8-21-46.8-46.8-46.8-0.7 0-1.3 0.1-2 0.1V303c0.7 0 1.3-0.1 2-0.1 45.7 0 83 37.2 83 83 0 10.1-8.1 18.2-18.1 18.2zM576.2 414.6c-15.8 0-28.7-12.9-28.7-28.7 0-20-16.2-36.2-36.2-36.2-0.7 0-1.3 0.1-2 0.1v-21.1c0.7 0 1.3-0.1 2-0.1 31.6 0 57.3 25.7 57.3 57.3 0 4.2 3.4 7.5 7.5 7.5s7.5-3.4 7.5-7.5c0-39.9-32.5-72.4-72.4-72.4-0.7 0-1.3 0-2 0.1v-21.1c0.7 0 1.3-0.1 2-0.1 51.6 0 93.5 42 93.5 93.5 0.2 15.9-12.7 28.7-28.5 28.7zM713.8 513.9c3.6 6.2 5.7 13.4 5.7 21.1 0 23.3-18.9 42.2-42.2 42.2 0 21.5-16 39.2-36.7 41.9-7.9 30.2-35.4 52.5-68 52.5-0.5 0-1.1-0.1-1.6-0.1-6.2 26.9-30.2 47-59 47-29.1 0-53.4-20.5-59.2-47.8-3.6 0.6-7.3 1-11.1 1-33.5 0-61.5-23.4-68.6-54.7-16.1-5.9-27.6-21.4-27.6-39.6-23.3 0-42.2-18.9-42.2-42.2 0-7.7 2.1-14.9 5.7-21.1-4.1-7.1-6.3-15.5-5.6-24.5 1.8-22.2 21.1-38.8 43.3-38.8h3.5c44.1 0 79.8 35.7 79.8 79.8v1.6c3.8-0.6 7.7-1 11.7-1 4.4 0 8.6 0.4 12.7 1.2 7.9-24.3 30.7-41.8 57.6-41.8 26.5 0 49 17 57.2 40.8 1.1-0.1 2.2-0.2 3.4-0.2 7.1 0 13.9 1 20.3 3v-3.6c0-44.1 35.7-79.8 79.8-79.8h3.5c22.2 0 41.5 16.7 43.3 38.8 0.6 8.8-1.6 17.2-5.7 24.3zM713.8 513.9c3.6 6.2 5.7 13.4 5.7 21.1 0 23.3-18.9 42.2-42.2 42.2 0 21.5-16 39.2-36.7 41.9-7.9 30.2-35.4 52.5-68 52.5-0.5 0-1.1-0.1-1.6-0.1-6.2 26.9-30.2 47-59 47-0.9 0-1.7-0.1-2.6-0.1v-227.8c0.9 0 1.7-0.1 2.6-0.1 26.5 0 49 17 57.2 40.8 1.1-0.1 2.2-0.2 3.4-0.2 7.1 0 13.9 1 20.3 3v-3.6c0-44.1 35.7-79.8 79.8-79.8h3.5c22.2 0 41.5 16.7 43.3 38.8 0.6 8.9-1.6 17.3-5.7 24.4zM511.3 411.3m-30.2 0a30.2 30.2 0 1 1 60.4 0 30.2 30.2 0 1 1-60.4 0ZM511.3 441.5c-0.7 0-1.3-0.1-2-0.1v-60.1c0.7 0 1.3-0.1 2-0.1 16.7 0 30.2 13.5 30.2 30.2 0 16.6-13.5 30.1-30.2 30.1zM549.1 133.79999999999995l10.2-20.8 22.9-3.3-16.6-16.2 4-22.8-20.5 10.7-20.6-10.7 4 22.8-16.6 16.2 22.9 3.3zM598.3 45.299999999999955l10.3-20.7 22.9-3.4-16.6-16.1 3.9-22.9-20.5 10.8-20.5-10.8 3.9 22.9-16.6 16.1 23 3.4zM378.6 175.60000000000002l10.3-20.8 22.9-3.3-16.6-16.2 3.9-22.9-20.5 10.8-20.5-10.8 3.9 22.9-16.6 16.2 23 3.3zM378.6 26.200000000000045l10.3-20.7 22.9-3.4-16.6-16.1 3.9-22.9-20.5 10.8-20.5-10.8L362-14l-16.6 16.1 23 3.4zM677.3 225.29999999999995l10.2-20.7 22.9-3.4-16.5-16.1 3.9-22.9-20.5 10.8-20.5-10.8 3.9 22.9-16.6 16.1 22.9 3.4zM809.8 408.5h9.1v-157.2h-9.1zM734.2 496.5a102.9 80.1 90 1 1 160.2 0 102.9 80.1 90 1 1-160.2 0Z"  horiz-adv-x="1024" />

    
    <glyph glyph-name="avatar-3" unicode="&#59212;" d="M511.4 383.70000000000005m-448.1 0a448.1 448.1 0 1 1 896.2 0 448.1 448.1 0 1 1-896.2 0ZM951.6 299.29999999999995L614.9 636.1l-206-264.5-64.5-71.3 332.9-332.9c140.1 55.7 245.4 180.3 274.3 331.9zM361.7 535.6l-33.9-182.9c-6.6-35.7 20.4-68.6 56.2-68.6h128.5V534.3l-150.8 1.3zM693.7 353.70000000000005L654.3 533l-141.8 1.3v-250.2h125.3c36.1 0 63.2 33.7 55.9 69.6zM555.4 272.4v48.7h-87.8v-48.7c0-3.9-3.2-7-7-7H400v-168.1h223V265.4h-60.5c-4 0-7.1 3.2-7.1 7zM622.9 265.4h-60.5c-3.9 0-7 3.2-7 7v48.7h-42.9v-223.8H623l-0.1 168.1zM365.5 423.2m-35.1 0a35.1 35.1 0 1 1 70.2 0 35.1 35.1 0 1 1-70.2 0ZM650 423.2m-35.1 0a35.1 35.1 0 1 1 70.2 0 35.1 35.1 0 1 1-70.2 0ZM511.7 277h-7.9c-73.2 0-132.5 59.3-132.5 132.5V530.4c0 73.2 59.3 132.5 132.5 132.5h7.9c73.2 0 132.5-59.3 132.5-132.5v-120.9c-0.1-73.2-59.4-132.5-132.5-132.5zM512.5 662.9V277c72.8 0.4 131.7 59.6 131.7 132.4v121c-0.1 72.9-59 132.1-131.7 132.5zM631.1 469.6v-46.4h24.7V535.6c0 30.7-9.7 59.2-26.1 82.5-26 37.1-69 61.3-117.8 61.3h-8.6c-79.4 0-143.8-64.4-143.8-143.8V423.2h21.1v59.4-13h250.5zM380.7 469.6v13zM629.8 618.1c-25.9 36.9-68.8 61.1-117.3 61.3v-209.9h118.7v-46.4h24.7V535.5c-0.1 30.8-9.7 59.3-26.1 82.6zM443.4 438.8m-13.6 0a13.6 13.6 0 1 1 27.2 0 13.6 13.6 0 1 1-27.2 0ZM572 438.8m-13.6 0a13.6 13.6 0 1 1 27.2 0 13.6 13.6 0 1 1-27.2 0ZM632.5 265.4h-46.7c0-41-33.3-130.7-74.3-130.7s-74.3 89.6-74.3 130.7h-46.7c-56.3 0-101.9-45.6-101.9-101.9v-168.6c65.7-37.7 141.8-59.3 223-59.3s157.3 21.6 223 59.3V163.5c-0.2 56.3-45.8 101.9-102.1 101.9zM734.4 163.5c0 56.3-45.6 101.9-101.9 101.9h-46.7c0-40.7-32.7-129.2-73.3-130.6v-199.2c80.8 0.2 156.6 21.7 221.9 59.3V163.5zM507.7 327c-24.6 0-44.6 20-44.6 44.6 0 4.2 3.4 7.5 7.5 7.5 4.2 0 7.5-3.4 7.5-7.5 0-16.3 13.2-29.5 29.5-29.5s29.5 13.2 29.5 29.5c0 4.2 3.4 7.5 7.5 7.5s7.5-3.4 7.5-7.5c0.2-24.6-19.8-44.6-44.4-44.6zM552.3 371.5c0 4.2-3.4 7.5-7.5 7.5-4.2 0-7.5-3.4-7.5-7.5 0-14.6-10.7-26.8-24.7-29.1v-15.2c22.2 2.4 39.7 21.4 39.7 44.3zM611 234.29999999999995h199.2v-99.6H611zM620.1 223.70000000000005h181.1v-78.5H620.1zM710.6-17.799999999999955c17.3 8.6 33.9 18.2 49.8 28.9V134.70000000000005h-49.8v-152.5zM777.7 208.5h9.9v-49.4h-9.9zM706.8 168.29999999999995h9.9v-9.2h-9.9zM765.7 158h-37.1v51.5h37.1V158z m-27.2 9.9h17.3v31.8h-17.3v-31.8zM694.9 158h-37.1v51.5h37.1V158z m-27.2 9.9H685v31.8h-17.3v-31.8z"  horiz-adv-x="1024" />

    
    <glyph glyph-name="avatar-4" unicode="&#59215;" d="M511.1 384.4m-447.8 0a447.8 447.8 0 1 1 895.6 0 447.8 447.8 0 1 1-895.6 0ZM717.9-12.799999999999955c142.7 74.4 240.2 223.4 240.9 395.3L829.2 512l-38.6-10.6-175.7 176.7-47-156.1-373.5-13 523.5-521.8zM555 273.20000000000005v48.7h-87.8v-48.7c0-3.9-3.1-7-7-7h-60.5v-167.9h222.8V266.20000000000005H562c-3.9 0-7 3.2-7 7zM622.5 266.20000000000005H562c-3.9 0-7 3.1-7 7v48.7h-43.9v-223.6h111.4V266.20000000000005zM365.2 423.9m-35.1 0a35.1 35.1 0 1 1 70.2 0 35.1 35.1 0 1 1-70.2 0ZM649.5 423.9m-35.1 0a35.1 35.1 0 1 1 70.2 0 35.1 35.1 0 1 1-70.2 0ZM511.3 277.79999999999995h-7.9c-73.1 0-132.4 59.3-132.4 132.4V531c0 73.1 59.3 132.4 132.4 132.4h7.9c73.1 0 132.4-59.3 132.4-132.4v-120.9c0-73-59.3-132.3-132.4-132.3zM511.3 663.4h-0.2v-385.6h0.2c73.1 0 132.4 59.3 132.4 132.4V531c0 73.1-59.3 132.4-132.4 132.4zM629.3 618.7c-26 37-69 61.3-117.7 61.3h-0.6v-171c17.7 5.8 35 12.7 51.5 21 19.9-22.8 42.8-43.2 68.1-59.7V424h24.7V536.4c0.1 30.5-9.6 58.9-26 82.3zM503.1 679.9c-79.4 0-143.7-64.3-143.7-143.7v-112.3h21.1v59.4c44.8 4.6 89.2 12.1 130.7 25.7V680h-8.1v-0.1zM443.1 439.4m-13.6 0a13.6 13.6 0 1 1 27.2 0 13.6 13.6 0 1 1-27.2 0ZM571.6 439.4m-13.6 0a13.6 13.6 0 1 1 27.2 0 13.6 13.6 0 1 1-27.2 0ZM632 266.20000000000005h-46.7c0-41-33.2-50.7-74.3-50.7s-74.3 9.7-74.3 50.7H390c-56.2 0-101.8-45.6-101.8-101.8v-168.5c65.6-37.7 141.7-59.3 222.8-59.3s157.2 21.6 222.8 59.3V164.39999999999998c0.1 56.2-45.5 101.8-101.8 101.8zM733.9 164.39999999999998c0 56.2-45.6 101.8-101.8 101.8h-46.7c0-41-33.2-50.7-74.3-50.7v-278.9c81.1 0 157.2 21.6 222.8 59.3V164.39999999999998zM507.4 327.70000000000005c-24.6 0-44.5 20-44.5 44.5 0 4.2 3.4 7.5 7.5 7.5s7.5-3.4 7.5-7.5c0-16.2 13.2-29.5 29.5-29.5 16.2 0 29.5 13.2 29.5 29.5 0 4.2 3.4 7.5 7.5 7.5 4.2 0 7.5-3.4 7.5-7.5 0-24.5-20-44.5-44.5-44.5zM551.9 372.29999999999995c0 4.2-3.4 7.5-7.5 7.5-4.2 0-7.5-3.4-7.5-7.5 0-15-11.2-27.4-25.7-29.2v-15.2c22.7 1.9 40.7 21.1 40.7 44.4zM680.1 539c-13.9 84.9-74.3 171.6-120.3 171.6-17.8 0-34.5-8.9-48.7-24.3-14.2 15.4-30.9 24.3-48.7 24.3-45.9 0-106.3-86.8-120.3-171.6-89.6-5.6-149.1-15.6-149.1-27 0-17.6 142.4-31.8 318.1-31.8s318.1 14.2 318.1 31.8c0 11.4-59.6 21.4-149.1 27zM680.1 539c-13.9 84.9-74.3 171.6-120.3 171.6-17.8 0-34.5-8.9-48.7-24.3v-206.1c175.7 0 318.1 14.2 318.1 31.8 0 11.4-59.6 21.4-149.1 27zM790 270.9h39.2V118H790zM807.6 270.9h21.6V118h-21.6zM809.6 334.6m-81.4 0a81.4 81.4 0 1 1 162.8 0 81.4 81.4 0 1 1-162.8 0ZM809.6 416c-0.7 0-1.3 0-2-0.1v-162.7c0.7 0 1.3-0.1 2-0.1 45 0 81.4 36.4 81.4 81.4 0 45.1-36.4 81.5-81.4 81.5zM809.6 238.10000000000002c-53.2 0-96.5 43.3-96.5 96.5s43.3 96.5 96.5 96.5 96.5-43.3 96.5-96.5-43.3-96.5-96.5-96.5z m0 162.9c-36.6 0-66.3-29.8-66.3-66.3s29.8-66.3 66.3-66.3c36.6 0 66.3 29.8 66.3 66.3S846.2 401 809.6 401zM809.6 431.1c-0.7 0-1.3 0-2-0.1v-30.2c0.7 0 1.3 0.1 2 0.1 36.6 0 66.3-29.8 66.3-66.3s-29.8-66.3-66.3-66.3c-0.7 0-1.3 0-2 0.1v-30.2c0.7 0 1.3-0.1 2-0.1 53.2 0 96.5 43.3 96.5 96.5s-43.3 96.5-96.5 96.5z"  horiz-adv-x="1024" />

    
    <glyph glyph-name="avatar-5" unicode="&#59216;" d="M511.8 383.29999999999995m-448.5 0a448.5 448.5 0 1 1 897 0 448.5 448.5 0 1 1-897 0ZM956.4 324.5l-304.9 305-10.7-10.7-63.1 63.1h-134l-90.2-90.2V404L278 383.29999999999995l411.8-411.8c141.9 61.5 245.8 194.1 266.6 353zM555.8 272v48.7h-87.9V272c0-3.9-3.2-7-7-7h-60.6v-168.2h223.1V265h-60.6c-3.9 0-7 3.1-7 7zM623.4 265h-60.6c-3.9 0-7 3.2-7 7v48.7h-46.5v-224h114.1V265zM365.7 422.9m-35.1 0a35.1 35.1 0 1 1 70.2 0 35.1 35.1 0 1 1-70.2 0ZM650.4 422.9m-35.1 0a35.1 35.1 0 1 1 70.2 0 35.1 35.1 0 1 1-70.2 0ZM515.8 276.6h-7.9c-73.2 0-132.6 59.4-132.6 132.6v121c0 73.2 59.4 132.6 132.6 132.6h7.9c73.2 0 132.6-59.4 132.6-132.6v-121c-0.1-73.3-59.4-132.6-132.6-132.6zM515.8 662.8h-6.5v-386.2h6.5c73.2 0 132.6 59.4 132.6 132.6v121c-0.1 73.2-59.4 132.6-132.6 132.6zM515.8 662.8h-7.9c-73.2 0-132.6-59.4-132.6-132.6v-76.7c2.2 1.8 4.4 3.6 6.7 5.3 75.5 51.3 157 63.4 244.6 75.5 8.1 0 14.9 3.6 21.1 8.9-6.6 67.1-63.1 119.6-131.9 119.6zM647.7 543.2c-6.5 67.1-63.1 119.5-131.9 119.5h-6.5v-149c37.8 9.4 76.9 15 117.3 20.6 8 0 14.9 3.6 21.1 8.9zM443.7 438.5m-13.7 0a13.7 13.7 0 1 1 27.4 0 13.7 13.7 0 1 1-27.4 0ZM572.4 438.5m-13.7 0a13.7 13.7 0 1 1 27.4 0 13.7 13.7 0 1 1-27.4 0ZM632.9 265h-46.8c0-41.1-33.3-81-74.4-81s-74.4 39.9-74.4 81h-46.8c-56.3 0-102-45.7-102-102v-168.8c65.7-37.8 141.9-59.4 223.1-59.4s157.4 21.6 223.1 59.4V163c0.2 56.3-45.4 102-101.8 102zM632.9 265h-46.8c0-41.1-33.3-81-74.4-81-0.8 0-1.7 0-2.5 0.1v-249.2h2.5c81.2 0 157.4 21.6 223.1 59.4V163c0.1 56.3-45.5 102-101.9 102zM508.1 326.6c-24.6 0-44.6 20-44.6 44.6 0 4.2 3.4 7.5 7.5 7.5s7.5-3.4 7.5-7.5c0-16.3 13.2-29.5 29.5-29.5s29.5 13.2 29.5 29.5c0 4.2 3.4 7.5 7.5 7.5 4.2 0 7.5-3.4 7.5-7.5 0.2-24.6-19.8-44.6-44.4-44.6zM552.7 371.20000000000005c0 4.2-3.4 7.5-7.5 7.5-4.2 0-7.5-3.4-7.5-7.5 0-15.9-12.6-28.8-28.3-29.4v-15.1c23.9 0.6 43.3 20.3 43.3 44.5zM687 368.29999999999995h-27.2V526.7c0 81.6-66.4 148-148 148s-148-66.4-148-148v-158.3h-27.2V526.7c0 96.6 78.6 175.2 175.2 175.2S687 623.2 687 526.7v-158.4zM511.8 701.8c-0.8 0-1.7-0.1-2.5-0.1v-27.2c0.8 0 1.7 0.1 2.5 0.1 81.6 0 148-66.4 148-148v-158.3H687V526.7c0 96.5-78.6 175.1-175.2 175.1zM674.9 353.9H650V503.4h24.9c41.3 0 74.7-33.5 74.7-74.7 0-41.4-33.4-74.8-74.7-74.8zM651.5 335c-8.3 0-15.1 6.8-15.1 15.1v157c0 8.3 6.8 15.1 15.1 15.1s15.1-6.8 15.1-15.1v-157c0-8.3-6.8-15.1-15.1-15.1zM337.4 503.4h24.9v-149.5h-24.9c-41.3 0-74.7 33.5-74.7 74.7 0 41.3 33.4 74.8 74.7 74.8zM360.8 522.2c8.3 0 15.1-6.8 15.1-15.1v-157c0-8.3-6.8-15.1-15.1-15.1s-15.1 6.8-15.1 15.1v157c0 8.4 6.8 15.1 15.1 15.1z"  horiz-adv-x="1024" />

    
    <glyph glyph-name="avatar-6" unicode="&#59218;" d="M511 384.1m-447.7 0a447.7 447.7 0 1 1 895.4 0 447.7 447.7 0 1 1-895.4 0ZM511 384.1m-447.7 0a447.7 447.7 0 1 1 895.4 0 447.7 447.7 0 1 1-895.4 0ZM269.2 509.8l138.1-138.1 40.4 152.1zM957.2 347.9l-86 86-28.6-42.9-10.6 6-224.4 224.4-49.7-68.6-111.6-145.9-108.3-5.4 87.3-87.3-9.1-3.8 87.5-87.5L732-5.399999999999977C857.4 66 945.1 196.29999999999995 957.2 347.9zM554.9 273v48.7h-87.7V273c0-3.9-3.1-7-7-7h-60.5v-167.9h222.7V266h-60.5c-3.9 0-7 3.1-7 7zM622.4 266h-60.5c-3.9 0-7 3.1-7 7v48.7h-46.4v-223.6h113.9V266zM365.2 423.6m-35.1 0a35.1 35.1 0 1 1 70.2 0 35.1 35.1 0 1 1-70.2 0ZM649.4 423.6m-35.1 0a35.1 35.1 0 1 1 70.2 0 35.1 35.1 0 1 1-70.2 0ZM511.2 277.6h-7.9c-73.1 0-132.3 59.2-132.3 132.3V530.7c0 73.1 59.2 132.3 132.3 132.3h7.9c73.1 0 132.3-59.2 132.3-132.3v-120.8c0.1-73.1-59.2-132.3-132.3-132.3zM511.2 663.1h-2.7v-385.5h2.7c73.1 0 132.3 59.2 132.3 132.3V530.7c0 73.1-59.2 132.4-132.3 132.4zM643.5 530.7c0 73.1-59.2 132.3-132.3 132.3h-7.9C430.2 663 371 603.8 371 530.7v-14h272.6l-0.1 14zM643.5 530.7c0 73.1-59.2 132.3-132.3 132.3h-2.7v-146.3h135.1l-0.1 14zM443 439.2m-13.6 0a13.6 13.6 0 1 1 27.2 0 13.6 13.6 0 1 1-27.2 0ZM571.5 439.2m-13.6 0a13.6 13.6 0 1 1 27.2 0 13.6 13.6 0 1 1-27.2 0ZM631.9 266h-46.7c0-41-33.2-80.8-74.2-80.8S436.8 225 436.8 266h-46.7c-56.2 0-101.8-45.6-101.8-101.8v-168.5c65.6-37.7 141.6-59.3 222.7-59.3s157.1 21.6 222.7 59.3V164.20000000000005c0 56.2-45.5 101.8-101.8 101.8zM631.9 266h-46.7c0-41-33.2-80.8-74.2-80.8-0.8 0-1.7 0-2.5 0.1v-248.7h2.5c81.1 0 157.1 21.6 222.7 59.3V164.20000000000005c0 56.2-45.5 101.8-101.8 101.8zM507.3 327.5c-24.6 0-44.5 20-44.5 44.5 0 4.2 3.4 7.5 7.5 7.5s7.5-3.4 7.5-7.5c0-16.2 13.2-29.5 29.5-29.5 16.2 0 29.5 13.2 29.5 29.5 0 4.2 3.4 7.5 7.5 7.5s7.5-3.4 7.5-7.5c0-24.6-20-44.5-44.5-44.5zM551.8 372c0 4.2-3.4 7.5-7.5 7.5s-7.5-3.4-7.5-7.5c0-15.8-12.6-28.7-28.2-29.4v-15.1c23.9 0.7 43.2 20.4 43.2 44.5zM314.3 538.6c-19.2-2.9-35.2-13.8-45.1-28.8 13.9-11.5 32.3-17.3 51.6-14.4s35.2 13.8 45.1 28.8c-13.9 11.5-32.4 17.3-51.6 14.4zM402.4 473.4c2.9-19.2-2.9-37.7-14.4-51.6-15 9.9-26 25.9-28.8 45.1s2.9 37.7 14.4 51.6c15-9.9 25.9-25.9 28.8-45.1zM367.1 517.7m-15 0a15 15 0 1 1 30 0 15 15 0 1 1-30 0ZM710 337.4v-34.7c0-10 8.1-18.1 18.1-18.1h38.1l-5.4-67.2c-1.4-17.4 12.4-32.3 29.8-32.3s31.2 14.9 29.8 32.3l-5.4 67.2h38.1c10 0 18.1 8.1 18.1 18.1v34.7H710zM791.9 337.4v-152.2c16.9 0.7 29.9 15.3 28.6 32.2l-5.4 67.2h38.1c10 0 18.1 8.1 18.1 18.1v34.7h-79.4zM710 433.9h161.3v-99.5H710zM791.9 433.9h79.4v-99.5h-79.4zM710 433.9V364c42.3 14 84.9 20.6 129.6 23.1 10.5 0 22.1 2.1 31.7 7.9v38.8H710v0.1zM791.9 433.9v-51.2c15.7 2.1 31.6 3.6 47.7 4.5 10.5 0 22.1 2.1 31.7 7.9v38.8h-79.4z"  horiz-adv-x="1024" />

    
    <glyph glyph-name="avatar-7" unicode="&#59221;" d="M511.4 383.9m-448.1 0a448.1 448.1 0 1 1 896.2 0 448.1 448.1 0 1 1-896.2 0ZM959.6 383.9c0 3.9 0 7.7-0.1 11.6l-184 183.8-36.4-23.6-133 133.1-85.4-131.6-265.1-30.7 115.2-115.2c-14.2-6.1-27.4-11.4-30.8-12l80.5-80.5-8.8-4.4 98.1-98.1 220.3-223.4c137 76.6 229.5 223 229.5 391zM884.1 325.70000000000005l-81.5 16.1v40.7l81.5 17.3zM793.3 303.9h-16.1c-9.3 0-16.8 7.5-16.8 16.8v65.9c0 9.3 7.5 16.8 16.8 16.8h16.1c9.3 0 16.8-7.5 16.8-16.8v-65.9c0.1-9.2-7.5-16.8-16.8-16.8zM793.3 403.5H785v-99.6h8.3c9.3 0 16.8 7.5 16.8 16.8v65.9c0.1 9.4-7.5 16.9-16.8 16.9zM860 102.29999999999995V259.4c0 41.2-33.4 74.7-74.7 74.7-41.2 0-74.7-33.4-74.7-74.7v-277c58.1 28.9 109 69.9 149.4 119.9zM785.3 334.1h-0.3v-305c27.7 21.4 52.9 46 74.9 73.2V259.4c0.1 41.3-33.4 74.7-74.6 74.7zM555.4 272.70000000000005v48.7h-87.8v-48.7c0-3.9-3.2-7-7-7H400v-168.1h223v168h-60.5c-4 0-7.1 3.2-7.1 7.1zM622.9 265.6h-60.5c-3.9 0-7 3.2-7 7v48.7h-44.9v-223.8H623l-0.1 168.1zM365.5 423.4m-35.1 0a35.1 35.1 0 1 1 70.2 0 35.1 35.1 0 1 1-70.2 0ZM650 423.4m-35.1 0a35.1 35.1 0 1 1 70.2 0 35.1 35.1 0 1 1-70.2 0ZM511.7 277.20000000000005h-7.9c-73.2 0-132.5 59.3-132.5 132.5v121c0 73.2 59.3 132.5 132.5 132.5h7.9c73.2 0 132.5-59.3 132.5-132.5v-120.9c-0.1-73.2-59.4-132.6-132.5-132.6zM511.7 663.1h-1.2v-385.9h1.2c73.2 0 132.5 59.3 132.5 132.5v121c-0.1 73.1-59.4 132.4-132.5 132.4zM629.8 618.4c-26 37.1-69 61.3-117.8 61.3h-8.6c-79.4 0-143.8-64.4-143.8-143.8V423.5h21.1v59.4c64.1 6.5 127.1 19.1 182.3 46.7 19.9-22.8 42.8-43.2 68.2-59.7v-46.4h24.7V535.9c-0.1 30.7-9.7 59.1-26.1 82.5zM629.8 618.4c-26 37.1-69 61.3-117.8 61.3h-1.6v-171.5c18.1 5.9 35.7 12.9 52.5 21.3 19.9-22.8 42.8-43.2 68.2-59.7v-46.4h24.7V535.8c0 30.8-9.6 59.2-26 82.6zM443.4 439m-13.6 0a13.6 13.6 0 1 1 27.2 0 13.6 13.6 0 1 1-27.2 0ZM572 439m-13.6 0a13.6 13.6 0 1 1 27.2 0 13.6 13.6 0 1 1-27.2 0ZM507.7 327.20000000000005c-24.6 0-44.6 20-44.6 44.6 0 4.2 3.4 7.5 7.5 7.5 4.2 0 7.5-3.4 7.5-7.5 0-16.3 13.2-29.5 29.5-29.5s29.5 13.2 29.5 29.5c0 4.2 3.4 7.5 7.5 7.5 4.2 0 7.5-3.4 7.5-7.5 0.2-24.6-19.8-44.6-44.4-44.6zM552.3 371.79999999999995c0 4.2-3.4 7.5-7.5 7.5s-7.5-3.4-7.5-7.5c0-15.3-11.8-28-26.7-29.3v-15.1c23.1 1.4 41.7 20.7 41.7 44.4zM437.1 265.6h-46.7c-56.3 0-101.9-45.6-101.9-101.9v-168.6c65.4-37.6 141.2-59.1 221.9-59.3V214.89999999999998c-40.5 0.2-73.3 10-73.3 50.7zM632.5 265.6h-46.7c0-41-33.3-50.7-74.3-50.7h-1v-279.1h1c81.2 0 157.3 21.6 223 59.3V163.70000000000005c-0.1 56.3-45.7 101.9-102 101.9zM500.9 215.10000000000002V-64c3.5-0.1 7-0.2 10.6-0.2 3.6 0 7 0.1 10.6 0.2V215.10000000000002c-3.5-0.2-7-0.2-10.6-0.2-3.6 0-7.2 0.1-10.6 0.2zM511.4 214.89999999999998h-1v-279.1h1c3.5 0 7 0.1 10.6 0.2V215.10000000000002c-3.4-0.1-7-0.2-10.6-0.2zM461.7 265.6l49.7-50.7-49.7-49.8-49.8 100.5zM561.2 265.6l-49.8-50.7 49.8-49.8L611 265.6zM511.4 610.2c52.4 0 97.6-23.9 118-58.2 7.5 15.7 11.7 33.2 11.7 51.7 0 68.7-58.1 124.5-129.8 124.5s-129.8-55.7-129.8-124.5c0-18.4 4.2-35.9 11.7-51.7 20.7 34.3 65.8 58.2 118.2 58.2zM511.4 728.1h-1v-117.9h1c52.4 0 97.6-23.9 118-58.2 7.5 15.7 11.7 33.2 11.7 51.7 0.1 68.7-58 124.4-129.7 124.4zM511.4 632.8m-49.8 0a49.8 49.8 0 1 1 99.6 0 49.8 49.8 0 1 1-99.6 0ZM511.4 682.6c-0.3 0-0.7 0-1-0.1V583c0.3 0 0.7-0.1 1-0.1 27.5 0 49.8 22.3 49.8 49.8s-22.3 49.9-49.8 49.9zM511.4 658c-149.2 0-270.1-44.6-270.1-99.6 0-34.2 46.8-64.4 118-82.3V506c0 8.4 0.9 16.7 2.5 24.7 38.8 17.2 91.5 27.7 149.5 27.7 53.7 0 102.8-9.1 140.6-24 2.2-9.1 3.3-18.6 3.3-28.4v-31.9c75.8 17.6 126.1 48.8 126.1 84.2 0.2 55.1-120.7 99.7-269.9 99.7zM511.4 658h-1v-99.6h1c53.7 0 102.8-9.1 140.6-24 2.2-9.1 3.3-18.6 3.3-28.4v-31.9c75.8 17.6 126.1 48.8 126.1 84.2 0.1 55.1-120.8 99.7-270 99.7zM626.1 110m-33.2 0a33.2 33.2 0 1 1 66.4 0 33.2 33.2 0 1 1-66.4 0Z"  horiz-adv-x="1024" />

    
    <glyph glyph-name="avatar-8" unicode="&#59224;" d="M511.8 384m-447.8 0a447.8 447.8 0 1 1 895.6 0 447.8 447.8 0 1 1-895.6 0ZM724.2-10.299999999999955C862 64.10000000000002 956.3 208.5 959.5 375.29999999999995l-93.9 93.9-73.6-9.9-180.3 180.4-127.9-409.6 240.4-240.4zM362.6 483.5c-12.6-138.7-49.8-248.8-49.8-248.8 69.2-14.2 134.6-16.8 193.5-12.9v339c-69.3 3.5-137.7-10.5-143.7-77.3zM656.6 533.3s-75.7 23.9-150.3 27.6v-339c163.4 10.8 275.9 71.7 275.9 71.7-117.6 69.3-125.6 239.7-125.6 239.7zM555.7 272.9v48.7H468v-48.7c0-3.9-3.1-7-7-7h-60.5V98h222.8V265.79999999999995h-60.5c-3.9 0-7.1 3.2-7.1 7.1zM623.2 265.79999999999995h-60.5c-3.9 0-7 3.1-7 7v48.7h-49.4v-223.6h116.9V265.79999999999995zM366 423.5m-35.1 0a35.1 35.1 0 1 1 70.2 0 35.1 35.1 0 1 1-70.2 0ZM650.2 423.5m-35.1 0a35.1 35.1 0 1 1 70.2 0 35.1 35.1 0 1 1-70.2 0ZM512.1 277.4h-7.9c-73.1 0-132.4 59.3-132.4 132.4V530.7c0 73.1 59.3 132.4 132.4 132.4h7.9c73.1 0 132.4-59.3 132.4-132.4v-120.9c-0.1-73.1-59.3-132.4-132.4-132.4zM512.1 663h-5.7v-385.6h5.7c73.1 0 132.4 59.3 132.4 132.4V530.7c-0.1 73.1-59.3 132.3-132.4 132.3zM360.1 535.8c0 79.4 64.3 143.7 143.7 143.7h8.6c48.7 0 91.7-24.2 117.7-61.3 16.4-23.3 26-51.8 26-82.5v-229.2s-16.6 136.7-82 161.8-121.6-7-161.8 54.3c0 0-34.2-6-32.2-137.7 0.7-37.9-21.5-47.6-20 150.9zM630.1 618.3c-26 37-69 61.3-117.7 61.3h-6.1v-199.2c21.2-1.2 43.9-2.8 67.8-12 65.3-25.1 82-161.8 82-161.8V535.8c0 30.7-9.6 59.1-26 82.5zM443.8 439.1m-13.6 0a13.6 13.6 0 1 1 27.2 0 13.6 13.6 0 1 1-27.2 0ZM572.4 439.1m-13.6 0a13.6 13.6 0 1 1 27.2 0 13.6 13.6 0 1 1-27.2 0ZM632.8 265.79999999999995h-46.7c0-41-33.2-118.5-74.3-118.5-41 0-74.3 77.5-74.3 118.5h-46.7C334.6 265.79999999999995 289 220.20000000000005 289 164v-168.5c65.6-37.7 141.7-59.3 222.8-59.3s157.2 21.6 222.8 59.3V164c0 56.2-45.6 101.8-101.8 101.8zM632.8 265.79999999999995h-46.7c0-41-33.2-118.5-74.3-118.5-1.9 0-3.7 0.2-5.5 0.5v-211.5c1.8 0 3.7-0.1 5.5-0.1 81.1 0 157.2 21.6 222.8 59.3V164c0 56.2-45.6 101.8-101.8 101.8zM508.1 327.29999999999995c-24.6 0-44.5 20-44.5 44.5 0 4.2 3.4 7.5 7.5 7.5s7.5-3.4 7.5-7.5c0-16.2 13.2-29.5 29.5-29.5s29.5 13.2 29.5 29.5c0 4.2 3.4 7.5 7.5 7.5s7.5-3.4 7.5-7.5c0-24.5-19.9-44.5-44.5-44.5zM545.1 379.4c-4.2 0-7.5-3.4-7.5-7.5 0-16.2-13.2-29.5-29.5-29.5-0.6 0-1.2 0.1-1.8 0.1v-15.1c0.6 0 1.2-0.1 1.8-0.1 24.6 0 44.5 20 44.5 44.5 0 4.2-3.3 7.6-7.5 7.6zM846 479.7h-85.4v-21.1h55.8V430h-55.8v-21.1h55.8v-28.6h-55.8v-21.1h55.8v-28.6h-55.8v-21.1h55.8v-28.6h-55.8v-21.1h55.8V231h-55.8v-21.1H846c13.6 0 24.6 11 24.6 24.6V455.1c0.1 13.6-11 24.6-24.6 24.6z"  horiz-adv-x="1024" />

    
    <glyph glyph-name="avatar-9" unicode="&#59228;" d="M511.8 382m-447.8 0a447.8 447.8 0 1 1 895.6 0 447.8 447.8 0 1 1-895.6 0ZM959.6 382v1.2L897 445.8l-36.4-28.1-219.9 220L404 424.5l-66.8-23.2 83.4-83.4-13.4-0.3 74.4-74.4s138.9-170.2 219.8-267C853.9 47.700000000000045 959.6 202.5 959.6 382zM804.3 120.39999999999998c-8.9 0-16.1 7.2-16.1 16.1V369.9c0 8.9 7.2 16.1 16.1 16.1 8.9 0 16.1-7.2 16.1-16.1v-233.4c0-8.9-7.2-16.1-16.1-16.1zM805.3 385.9v-265.4c8.4 0.5 15.1 7.5 15.1 16V369.9c0 8.5-6.7 15.4-15.1 16zM555.7 270.9v48.7h-87.8v-48.7c0-3.9-3.1-7-7-7h-60.5V96h222.8V263.9h-60.5c-3.9 0-7 3.1-7 7zM623.2 263.9h-60.5c-3.9 0-7 3.1-7 7v48.7h-44.9V96h112.4V263.9zM365.9 421.5m-35.1 0a35.1 35.1 0 1 1 70.2 0 35.1 35.1 0 1 1-70.2 0ZM650.2 421.5m-35.1 0a35.1 35.1 0 1 1 70.2 0 35.1 35.1 0 1 1-70.2 0ZM512 275.5h-7.9c-73.1 0-132.4 59.3-132.4 132.4V528.7c0 73.1 59.3 132.4 132.4 132.4h7.9c73.1 0 132.4-59.3 132.4-132.4v-120.9c0-73.1-59.3-132.3-132.4-132.3zM512 661h-1.2v-385.6h1.2c73.1 0 132.4 59.3 132.4 132.4V528.7c0 73.1-59.3 132.3-132.4 132.3zM503.8 677.6c-79.4 0-143.7-64.3-143.7-143.7v-112.3h21.1V481c44.5 4.5 88.4 12 129.7 25.4V677.6h-7.1zM630 616.3c-26 37-69 61.3-117.7 61.3h-1.6v-171.3c18.1 5.9 35.7 12.9 52.5 21.3 19.9-22.8 42.8-43.2 68.1-59.7v-46.3H656V534c0.1 30.5-9.6 59-26 82.3zM443.8 437.1m-13.6 0a13.6 13.6 0 1 1 27.2 0 13.6 13.6 0 1 1-27.2 0ZM572.3 437.1m-13.6 0a13.6 13.6 0 1 1 27.2 0 13.6 13.6 0 1 1-27.2 0ZM545.1 377.4c-4.2 0-7.5-3.4-7.5-7.5 0-15.3-11.8-27.9-26.7-29.3-0.9-0.1-1.8-0.1-2.7-0.1-16.2 0-29.5 13.2-29.5 29.5 0 4.2-3.4 7.5-7.5 7.5s-7.5-3.4-7.5-7.5c0-24.6 20-44.5 44.5-44.5 0.9 0 1.8 0.1 2.7 0.1 23.3 1.4 41.8 20.8 41.8 44.4-0.1 4.1-3.5 7.4-7.6 7.4zM552.6 369.9c0 4.2-3.4 7.5-7.5 7.5-4.2 0-7.5-3.4-7.5-7.5 0-15.3-11.8-27.9-26.7-29.3v-15.1c23.2 1.4 41.7 20.8 41.7 44.4zM658.1 483H359.6V593.3c0 27.4 17.4 51.7 43.3 60.5l87.9 30c13.7 4.7 28.5 4.6 42.1-0.3l82.7-29.4c25.5-9.1 42.5-33.2 42.5-60.3V483zM658.1 593.9c0 27.1-17 51.2-42.5 60.3l-82.7 29.4c-7.1 2.5-14.6 3.7-22 3.7V483h147.2V593.9zM353.5 469.8c0 30 70.9 54.3 158.3 54.3s158.3-24.3 158.3-54.3H353.5zM511.8 524.1h-1v-54.3h159.3c0 30-70.9 54.3-158.3 54.3zM629 263.9h-46.7c0-41-33.2-74.3-74.3-74.3s-74.3 33.2-74.3 74.3H387c-56.2 0-101.8-45.6-101.8-101.8v-166.3c66.5-39.1 143.9-61.5 226.5-61.5 79.6 0 154.3 20.8 219 57.2V162c0.2 56.3-45.4 101.9-101.7 101.9zM629 263.9h-46.7c0-40.1-31.8-72.7-71.5-74.2v-255.4h1c79.6 0 154.3 20.8 219 57.2V162c0.1 56.3-45.5 101.9-101.8 101.9zM412.3 263.9h-25.2c-8.5 0-16.7-1.1-24.6-3v-301.1c46.7-16.5 96.9-25.5 149.3-25.5 52.3 0 102.6 9 149.3 25.6V258.70000000000005c-10.1 3.3-20.8 5.2-32 5.2h-17.7v-180.3h-199l-0.1 180.3zM629 263.9h-17.7v-180.3H510.8v-149.2h1c52.3 0 102.6 9 149.3 25.6V258.70000000000005c-10.1 3.3-20.9 5.2-32.1 5.2zM804.3 335.29999999999995c-44 0-79.7 35.7-79.7 79.7v26.6H884V415c0-44.1-35.7-79.7-79.7-79.7zM805.3 441.5v-106.2c43.5 0.5 78.7 36 78.7 79.7v26.6h-78.7v-0.1zM880 417.4H728.6c-10.7 0-19.3 8.6-19.3 19.3 0 10.7 8.6 19.3 19.3 19.3H880c10.7 0 19.3-8.6 19.3-19.3 0-10.7-8.7-19.3-19.3-19.3zM880 456h-74.7v-38.6H880c10.7 0 19.3 8.6 19.3 19.3 0 10.6-8.7 19.3-19.3 19.3z"  horiz-adv-x="1024" />

    
    <glyph glyph-name="paging_left" unicode="&#58962;" d="M258.64 384l271.53-271.529c16.662-16.662 16.662-43.677 0-60.34-16.662-16.662-43.678-16.662-60.34 0l-301.699 301.7c-16.662 16.661-16.662 43.677 0 60.339l301.7 301.699c16.661 16.662 43.677 16.662 60.339 0 16.662-16.663 16.662-43.678 0-60.34L258.64 384zM558.64 384l271.53-271.529c16.662-16.662 16.662-43.677 0-60.34-16.662-16.662-43.678-16.662-60.34 0l-301.699 301.7c-16.662 16.661-16.662 43.677 0 60.339l301.7 301.699c16.661 16.662 43.677 16.662 60.339 0 16.662-16.663 16.662-43.678 0-60.34L558.64 384z"  horiz-adv-x="1024" />

    
    <glyph glyph-name="paging_right" unicode="&#58963;" d="M774.36 384L502.83 112.471c-16.662-16.662-16.662-43.677 0-60.34 16.662-16.662 43.678-16.662 60.34 0l301.699 301.7c16.662 16.661 16.662 43.677 0 60.339l-301.7 301.699c-16.661 16.662-43.677 16.662-60.339 0-16.662-16.663-16.662-43.678 0-60.34L774.36 384zM474.36 384L202.83 112.471c-16.662-16.662-16.662-43.677 0-60.34 16.662-16.662 43.678-16.662 60.34 0l301.699 301.7c16.662 16.661 16.662 43.677 0 60.339l-301.7 301.699c-16.661 16.662-43.677 16.662-60.339 0-16.662-16.663-16.662-43.678 0-60.34L474.36 384z"  horiz-adv-x="1024" />

    
    <glyph glyph-name="demo" unicode="&#58880;" d="M588.0064-2.3039999999999736l-342.4384 111.6032V573.952l342.4384-111.6032V-2.3039999999999736zM684.7744-2.3039999999999736l342.4384 111.6032V573.952l-342.4384-111.6032V-2.3039999999999736zM245.5808 617.7536l393.4592-105.5616 388.1728 106.6624-342.4384 74.4192-439.1936-75.52z"  horiz-adv-x="1280" />

    
    <glyph glyph-name="pen" unicode="&#58994;" d="M194.63168 259.65567999999996l-43.9296-43.9296c-26.5728-26.53184-48.30208-79.0016-48.2304-116.46976L102.4-25.600000000000023h124.8256c37.49888 0 89.96864 21.72928 116.50048 48.26112l43.97056 43.93984-193.06496 193.05472zM882.47296 561.3568l15.0016 15.0016C910.72512 589.6294399999999 921.6 615.86432 921.6 634.63424V691.2L819.2 793.6h-56.53504c-18.7392 0-44.97408-10.87488-58.2656-24.13568l-15.0016-15.0016L882.47296 561.3568zM230.81984 295.86432L568.7296 633.7638400000001l193.06496-193.06496-337.88928-337.89952zM266.99776 476.89728a34.18112 34.18112 0 0 1 0-48.27136l12.07296-12.07296 289.62816 289.6384L798.0032 476.89728l48.27136 48.26112L629.07392 742.4c-26.5728 26.53184-70.00064 26.53184-96.57344 0L266.99776 476.89728z"  horiz-adv-x="1024" />

    


  </font>
</defs>
</svg>
